<?xml version="1.0" encoding="UTF-8"?>
<svg width="49px" height="53px" viewBox="0 0 49 53" version="1.1" xmlns="http://www.w3.org/2000/svg" xmlns:xlink="http://www.w3.org/1999/xlink">
    <!-- Generator: Sketch 45.2 (43514) - http://www.bohemiancoding.com/sketch -->
    <title>Page 1 Copy</title>
    <desc>Created with Sketch.</desc>
    <defs></defs>
    <g id="Page-1" stroke="none" stroke-width="1" fill="none" fill-rule="evenodd">
        <g transform="translate(1.000000, 0.447754)">
            <path d="M21.0522464,6 L41.1891777,6" id="Fill-1" fill-opacity="0" fill="#000000"></path>
            <path d="M17.4973408,5.33333333 L41.1891777,5.33333333" id="Stroke-3" stroke="#2A6EBB" stroke-width="2" stroke-linecap="square"></path>
            <path d="M0.915315059,6 L6.40720541,6" id="Fill-4" fill-opacity="0" fill="#000000"></path>
            <path d="M0.915315059,6 L6.40720541,6" id="Stroke-5" stroke="#2A6EBB" stroke-width="2" stroke-linecap="square"></path>
            <polygon id="Fill-6" fill-opacity="0" fill="#000000" points="6.40720541 0.915315059 13.7297259 0.915315059 13.7297259 11.8990958 6.40720541 11.8990958"></polygon>
            <polygon id="Stroke-7" stroke="#2A6EBB" stroke-width="2" stroke-linecap="square" points="6.40720541 0.915315059 13.7297259 0.915315059 13.7297259 11.8990958 6.40720541 11.8990958"></polygon>
            <path d="M39.3585475,21 L41.1891777,21" id="Fill-8" fill-opacity="0" fill="#000000"></path>
            <path d="M36.394557,20.6666667 L41.1891777,20.6666667" id="Stroke-9" stroke="#2A6EBB" stroke-width="2" stroke-linecap="square"></path>
            <path d="M0.915315059,21 L24.7135066,21" id="Fill-10" fill-opacity="0" fill="#000000"></path>
            <path d="M0.915315059,21 L24.7135066,21" id="Stroke-11" stroke="#2A6EBB" stroke-width="2" stroke-linecap="square"></path>
            <polygon id="Fill-12" fill-opacity="0" fill="#000000" points="24.7135066 15.560356 32.0360271 15.560356 32.0360271 26.5441367 24.7135066 26.5441367"></polygon>
            <polygon id="Stroke-13" stroke="#2A6EBB" stroke-width="2" stroke-linecap="square" points="24.7135066 15.560356 32.0360271 15.560356 32.0360271 26.5441367 24.7135066 26.5441367"></polygon>
            <path d="M21.0522464,35 L41.1891777,35" id="Fill-14" fill-opacity="0" fill="#000000"></path>
            <path d="M17.4973408,34.6666667 L41.1891777,34.6666667" id="Stroke-15" stroke="#2A6EBB" stroke-width="2" stroke-linecap="square"></path>
            <path d="M0.915315059,35 L6.40720541,35" id="Fill-16" fill-opacity="0" fill="#000000"></path>
            <path d="M0.915315059,35 L6.40720541,35" id="Stroke-17" stroke="#2A6EBB" stroke-width="2" stroke-linecap="square"></path>
            <polygon id="Fill-18" fill-opacity="0" fill="#000000" points="6.40720541 30.205397 13.7297259 30.205397 13.7297259 41.1891777 6.40720541 41.1891777"></polygon>
            <polygon id="Stroke-19" stroke="#2A6EBB" stroke-width="2" stroke-linecap="square" points="6.40720541 30.205397 13.7297259 30.205397 13.7297259 41.1891777 6.40720541 41.1891777"></polygon>
        </g>
    </g>
</svg>
