<?xml version="1.0" encoding="UTF-8" standalone="no"?>
<svg width="57px" height="48px" viewBox="0 0 57 48" version="1.1" xmlns="http://www.w3.org/2000/svg" xmlns:xlink="http://www.w3.org/1999/xlink">
    <!-- Generator: Sketch 42 (36781) - http://www.bohemiancoding.com/sketch -->
    <title>Page 1</title>
    <desc>Created with Sketch.</desc>
    <defs></defs>
    <g id="Page-1" stroke="none" stroke-width="1" fill="none" fill-rule="evenodd">
        <g fill="#2A6EBB">
            <path d="M1.95867371,6.8287598 L54.4076029,6.8287598 L54.4076029,1.96668282 L1.95867371,1.96668282 L1.95867371,6.8287598 Z M54.4076029,45.3726838 L42.6555607,45.3726838 L42.6555607,29.2668626 C45.0238148,28.076364 46.5729081,25.6053363 46.5729081,22.9170994 C46.5729081,20.4132936 45.230999,18.0676966 43.0716701,16.7959083 L42.8418523,16.6612998 L40.696887,16.6612998 L40.696887,21.4967173 L38.3029525,21.4967173 L38.3029525,16.6612998 L36.1579871,16.6612998 L35.9281694,16.7959083 C33.7688405,18.0676966 32.4269314,20.4132936 32.4269314,22.9170994 C32.4269314,25.6048992 33.9760246,28.0759269 36.3442788,29.2668626 L36.3442788,45.3726838 L23.7217149,45.3726838 L23.7217149,24.7465514 L30.0329968,24.7465514 L30.0329968,16.6612998 L12.8401943,16.6612998 L12.8401943,17.6446412 C12.8401943,18.7892506 11.9126535,19.7205842 10.7727054,19.7205842 L9.79336853,19.7205842 L9.79336853,24.7465514 L17.4104329,24.7465514 L17.4104329,45.3726838 L1.95867371,45.3726838 L1.95867371,8.79544262 L54.4076029,8.79544262 L54.4076029,45.3726838 Z M37.6740006,27.7083758 C35.7070569,26.9527325 34.3856051,25.0266945 34.3856051,22.9170994 C34.3856051,21.3420049 35.1216311,19.8525705 36.3442788,18.8862737 L36.3442788,23.4634001 L42.6555607,23.4634001 L42.6555607,18.8862737 C43.8782084,19.8525705 44.6142344,21.3420049 44.6142344,22.9170994 C44.6142344,25.0266945 43.2927826,26.9527325 41.3258389,27.7083758 L40.696887,27.9504963 L40.696887,45.3726838 L38.3029525,45.3726838 L38.3029525,27.9504963 L37.6740006,27.7083758 Z M19.3691066,45.3726838 L21.7630412,45.3726838 L21.7630412,24.7465514 L19.3691066,24.7465514 L19.3691066,45.3726838 Z M17.4104329,22.7798686 L11.7520422,22.7798686 L11.7520422,21.5662068 C13.1866619,21.2047742 14.3183401,20.0684686 14.6783008,18.6279826 L28.0743231,18.6279826 L28.0743231,22.7798686 L23.7217149,22.7798686 L17.4104329,22.7798686 Z M0,0 L0,6.8287598 L0,8.79544262 L0,47.3393666 L56.3662767,47.3393666 L56.3662767,8.79544262 L56.3662767,6.8287598 L56.3662767,0 L0,0 Z" id="Fill-1"></path>
            <polygon id="Fill-3" points="13.312017 5.3808442 15.4883211 5.3808442 15.4883211 3.41416138 13.312017 3.41416138"></polygon>
            <polygon id="Fill-4" points="8.95940879 5.3808442 11.1357129 5.3808442 11.1357129 3.41416138 8.95940879 3.41416138"></polygon>
            <polygon id="Fill-5" points="4.60680056 5.3808442 6.78310467 5.3808442 6.78310467 3.41416138 4.60680056 3.41416138"></polygon>
            <polygon id="Fill-6" points="29.1629104 31.787713 31.1215841 31.787713 31.1215841 29.6025098 29.1629104 29.6025098"></polygon>
            <polygon id="Fill-7" points="29.1629104 36.1581192 31.1215841 36.1581192 31.1215841 33.9729161 29.1629104 33.9729161"></polygon>
            <polygon id="Fill-8" points="29.1629104 31.4020889 31.1215841 31.4020889 31.1215841 29.2168857 29.1629104 29.2168857"></polygon>
        </g>
    </g>
</svg>