<?xml version="1.0" encoding="UTF-8" standalone="no"?>
<svg width="50px" height="50px" viewBox="0 0 50 50" version="1.1" xmlns="http://www.w3.org/2000/svg" xmlns:xlink="http://www.w3.org/1999/xlink">
    <!-- Generator: Sketch 42 (36781) - http://www.bohemiancoding.com/sketch -->
    <title>Page 1</title>
    <desc>Created with Sketch.</desc>
    <defs></defs>
    <g id="Page-1" stroke="none" stroke-width="1" fill="none" fill-rule="evenodd">
        <g id="Group-6" fill="#2A6EBB">
            <g transform="translate(0.000000, 0.205345)">
                <path d="M42.6337745,38.4156633 C40.3614287,37.696135 38.0517101,37.1145985 35.7136539,36.6726964 C36.6368843,33.4101778 37.1847443,29.6757769 37.2582577,25.6682673 L47.2059824,25.6682673 C47.0133689,30.4421237 45.3414513,34.8406099 42.6337745,38.4156633 L42.6337745,38.4156633 Z M30.3249951,46.6840779 C32.2913771,44.7920307 33.9530274,41.9553973 35.1567588,38.4567322 C37.2479905,38.8440126 39.3154021,39.346286 41.3540656,39.9623205 C38.4463828,43.1722708 34.6343615,45.5468783 30.3249951,46.6840779 L30.3249951,46.6840779 Z M25.4628403,47.3428241 L25.4628403,37.493665 C28.083451,37.534734 30.6855806,37.7466498 33.2564978,38.1347515 C31.4297502,43.2383918 28.6136513,46.7596448 25.4628403,47.3428241 L25.4628403,47.3428241 Z M23.6147369,27.5163707 L23.6147369,35.6365264 C20.798638,35.6792381 18.0026629,35.9170274 15.240775,36.3486623 C14.3122057,33.181013 13.7458647,29.5308034 13.6670122,25.6682673 L18.0704267,25.6682673 L18.0704267,23.8201639 L13.6670122,23.8201639 C13.7458647,19.9576277 14.3122057,16.3078288 15.2403643,13.1405903 C18.0022522,13.5714037 20.798638,13.8087823 23.6147369,13.8519047 L23.6147369,21.9720604 L25.4628403,21.9720604 L25.4628403,13.8519047 C28.2797606,13.809193 31.0761464,13.5718144 33.8372129,13.1414116 C34.7653715,16.3086502 35.3317126,19.9580384 35.4101543,23.8201639 L31.0071506,23.8201639 L31.0071506,25.6682673 L35.4101543,25.6682673 C35.3317126,29.5303927 34.7653715,33.1801916 33.8368022,36.3478409 C31.0757357,35.9166168 28.2793499,35.6792381 25.4628403,35.6365264 L25.4628403,27.5163707 L23.6147369,27.5163707 Z M23.6147369,47.3428241 C20.4639259,46.7596448 17.647827,43.2388025 15.8210794,38.1355729 C18.392818,37.7470605 20.9949476,37.534734 23.6147369,37.493665 L23.6147369,47.3428241 Z M7.72474373,39.9639632 C9.76340714,39.3475181 11.8308188,38.8452446 13.9212291,38.4579643 C15.1249605,41.955808 16.7862001,44.7920307 18.7521715,46.6840779 C14.4436264,45.5468783 10.6324264,43.1730921 7.72474373,39.9639632 L7.72474373,39.9639632 Z M6.44503478,38.417306 C3.73612587,34.8418419 2.06379762,30.4429451 1.87159486,25.6682673 L11.8189088,25.6682673 C11.892833,29.6761876 12.440693,33.4109992 13.3639233,36.6739285 C11.0270992,37.1162412 8.7177913,37.6977778 6.44503478,38.417306 L6.44503478,38.417306 Z M6.44257065,11.0735893 C8.71573785,11.7927068 11.0258671,12.3738327 13.3635126,12.8157347 C12.440693,16.0778426 11.892833,19.8122436 11.8189088,23.8201639 L1.87159486,23.8201639 C2.06379762,19.0467181 3.73530449,14.6486426 6.44257065,11.0735893 L6.44257065,11.0735893 Z M18.7521715,2.8039425 C16.7857894,4.69598971 15.1245498,7.5330338 13.9208184,11.0316989 C11.8295868,10.6444186 9.76176438,10.1425558 7.72269028,9.52652135 C10.630373,6.31657106 14.442805,3.94155283 18.7521715,2.8039425 L18.7521715,2.8039425 Z M23.6147369,2.14519631 L23.6147369,11.9943554 C20.9945369,11.9532865 18.3924073,11.7413706 15.8206688,11.3536796 C17.647827,6.24962865 20.4639259,2.72837561 23.6147369,2.14519631 L23.6147369,2.14519631 Z M25.4628403,2.14519631 C28.6136513,2.72837561 31.4301609,6.25003934 33.2569085,11.354501 C30.6859913,11.7417813 28.083451,11.9536972 25.4628403,11.9943554 L25.4628403,2.14519631 Z M41.356119,9.52816411 C39.3174556,10.1437879 37.2492225,10.6460613 35.1571695,11.0325203 C33.9534381,7.53344449 32.2917878,4.6964004 30.3249951,2.8039425 C34.6355936,3.94155283 38.4480256,6.31739244 41.356119,9.52816411 L41.356119,9.52816411 Z M42.6358279,11.075232 C45.3426834,14.6498747 47.0133689,19.0471288 47.2059824,23.8201639 L37.2582577,23.8201639 C37.1847443,19.8126543 36.6368843,16.0790747 35.7140646,12.8165561 C38.0529422,12.3754754 40.3630714,11.7943496 42.6358279,11.075232 L42.6358279,11.075232 Z M24.5387886,0.2055091 C11.0082075,0.2055091 8.2137929e-05,11.2132237 8.2137929e-05,24.7442156 C8.2137929e-05,38.2747967 11.0082075,49.282922 24.5387886,49.282922 C38.0693698,49.282922 49.0774951,38.2747967 49.0774951,24.7442156 C49.0774951,11.2132237 38.0693698,0.2055091 24.5387886,0.2055091 L24.5387886,0.2055091 Z" id="Fill-4"></path>
                <path d="M23.6146548,23.8199996 L16.4275859,23.8199996 L16.4275859,25.668103 L23.6146548,25.668103 L23.6146548,28.0866087 L25.4627582,28.0866087 L25.4627582,25.668103 L32.8551718,25.668103 L32.8551718,23.8199996 L25.4627582,23.8199996 L25.4627582,21.6981031 L23.6146548,21.6981031 L23.6146548,23.8199996 Z" id="Combined-Shape"></path>
            </g>
        </g>
    </g>
</svg>